<svg xmlns="http://www.w3.org/2000/svg" version="1.1" xmlns:xlink="http://www.w3.org/1999/xlink" xmlns:svgjs="http://svgjs.dev/svgjs" width="1440" height="660" preserveAspectRatio="none" viewBox="0 0 1440 660"><g mask="url(&quot;#SvgjsMask1007&quot;)" fill="none"><rect width="1440" height="660" x="0" y="0" fill="rgba(242, 240, 239, 1)"></rect><path d="M0,664.07C124.34,670.146,250.382,615.558,340.199,529.36C423.778,449.149,430.088,323.28,468.849,214.116C503.791,115.706,563.215,24.195,556.573,-80.023C549.663,-188.448,507.26,-296.037,431.382,-373.795C357.415,-449.595,249.742,-475.065,146.798,-499.949C48.165,-523.791,-52.477,-538.487,-151.099,-514.596C-252.848,-489.948,-336.174,-427.168,-418.838,-362.925C-519.838,-284.432,-663.996,-224.632,-686.283,-98.673C-708.506,26.922,-592.384,131.383,-525.517,239.996C-466.747,335.457,-406.722,426.725,-319.483,497.124C-224.042,574.142,-122.495,658.084,0,664.07" fill="#c7beba"></path><path d="M1440 1294.461C1556.788 1292.116 1631.289 1171.882 1720.516 1096.492 1797.856 1031.146 1875.167 969.318 1927.444 882.608 1984.8 787.472 2034.3 685.497 2035.2730000000001 574.413 2036.336 453.076 2007.505 328.576 1933.135 232.69600000000003 1856.899 134.41099999999994 1744.549 60.66399999999999 1621.693 41.21199999999999 1504.481 22.65300000000002 1386.927 70.26400000000001 1284.37 129.97299999999996 1196.552 181.101 1160.888 284.595 1085.8890000000001 353.161 996.905 434.512 822.346 449.39 804.551 568.636 786.788 687.668 945.648 754.829 1010.851 855.986 1064.091 938.5840000000001 1083.413 1037.676 1152.149 1107.906 1233.779 1191.31 1323.321 1296.804 1440 1294.461" fill="#ffffff"></path></g><defs><mask id="SvgjsMask1007"><rect width="1440" height="660" fill="#ffffff"></rect></mask></defs></svg>