<svg width="100%" height="100%" id="svg" viewBox="0 0 1440 690" xmlns="http://www.w3.org/2000/svg" class="transition duration-300 ease-in-out delay-150"><path d="M 0,700 L 0,325 C 51.31388070692195,362.5932437407953 102.6277614138439,400.1864874815906 161,368 C 219.3722385861561,335.8135125184094 284.80283505154637,233.847293814433 347,184 C 409.19716494845363,134.152706185567 468.1608983799705,136.42433726067748 534,111 C 599.8391016200295,85.57566273932251 672.5535714285713,32.45535714285714 738,28 C 803.4464285714287,23.54464285714286 861.6248159057438,67.75423416789397 910,75 C 958.3751840942562,82.24576583210603 996.9471649484535,52.52770618556701 1057,-3 C 1117.0528350515465,-58.52770618556701 1198.5865243004416,-139.86505891016202 1266,-177 C 1333.4134756995584,-214.13494108983798 1386.706737849779,-207.067470544919 1440,-200 L 1440,700 L 0,700 Z" stroke="none" stroke-width="0" fill="#abb8c3" fill-opacity="0.53" class="transition-all duration-300 ease-in-out delay-150 path-0"></path><path d="M 0,700 L 0,558 C 70.97238586156112,559.3038475699558 141.94477172312224,560.6076951399116 205,544 C 268.05522827687776,527.3923048600884 323.1932989690722,492.8730670103093 371,486 C 418.8067010309278,479.1269329896907 459.28203240058906,499.9000368188512 522,451 C 584.7179675994109,402.0999631811488 669.6785714285714,283.52678571428567 739,262 C 808.3214285714286,240.4732142857143 862.0036818851253,315.99282032400595 922,317 C 981.9963181148747,318.00717967599405 1048.3067010309278,244.50193298969072 1100,177 C 1151.6932989690722,109.49806701030928 1188.7695139911634,47.99944771723122 1243,25 C 1297.2304860088366,2.0005522827687794 1368.6152430044183,17.50027614138439 1440,33 L 1440,700 L 0,700 Z" stroke="none" stroke-width="0" fill="#abb8c3" fill-opacity="1" class="transition-all duration-300 ease-in-out delay-150 path-1"></path></svg>