<svg width="100%" height="100%" id="svg" viewBox="0 0 1440 690" xmlns="http://www.w3.org/2000/svg" class="transition duration-300 ease-in-out delay-150"><path d="M 0,700 L 0,175 C 49.84775405007362,178.10309278350516 99.69550810014724,181.20618556701032 162,164 C 224.30449189985276,146.79381443298968 299.0657216494846,109.27835051546393 359,131 C 418.9342783505154,152.72164948453607 464.0416053019145,233.68041237113403 522,261 C 579.9583946980855,288.319587628866 650.7678571428572,262 708,233 C 765.2321428571428,204 808.886966126657,172.31958762886597 874,162 C 939.113033873343,151.68041237113403 1025.6842783505153,162.72164948453607 1096,162 C 1166.3157216494847,161.27835051546393 1220.3759204712812,148.7938144329897 1275,149 C 1329.6240795287188,149.2061855670103 1384.8120397643593,162.10309278350513 1440,175 L 1440,700 L 0,700 Z" stroke="none" stroke-width="0" fill="#abb8c3" fill-opacity="0.53" class="transition-all duration-300 ease-in-out delay-150 path-0"></path><path d="M 0,700 L 0,408 C 45.557805596465386,409.92323269513986 91.11561119293077,411.8464653902798 156,390 C 220.88438880706923,368.1535346097202 305.0953608247423,322.53737113402065 368,346 C 430.9046391752577,369.46262886597935 472.5029455081001,462.00405007363776 525,487 C 577.4970544918999,511.99594992636224 640.8928571428572,469.44642857142856 710,432 C 779.1071428571428,394.55357142857144 853.9256259204712,362.210235640648 915,366 C 976.0743740795288,369.789764359352 1023.4046391752577,409.7126288659794 1077,401 C 1130.5953608247423,392.2873711340206 1190.4558173784978,334.9392488954345 1252,328 C 1313.5441826215022,321.0607511045655 1376.772091310751,364.53037555228275 1440,408 L 1440,700 L 0,700 Z" stroke="none" stroke-width="0" fill="#abb8c3" fill-opacity="1" class="transition-all duration-300 ease-in-out delay-150 path-1"></path></svg>